<?xml version="1.0" encoding="utf-8"?>
<!-- Generator: Adobe Illustrator 18.0.0, SVG Export Plug-In . SVG Version: 6.00 Build 0)  -->
<!DOCTYPE svg PUBLIC "-//W3C//DTD SVG 1.1//EN" "http://www.w3.org/Graphics/SVG/1.1/DTD/svg11.dtd">
<svg version="1.1" id="Layer_1" xmlns="http://www.w3.org/2000/svg" xmlns:xlink="http://www.w3.org/1999/xlink" x="0px" y="0px"
	 viewBox="0 0 512 512" enable-background="new 0 0 512 512" xml:space="preserve">
<path fill="#FC0254" d="M7.5,364.8c4.1,0,7.5-3.4,7.5-7.5V138.9h443.1v82.4c0,4.1,3.4,7.5,7.5,7.5c4.1,0,7.5-3.4,7.5-7.5V73.1
	c0-25.1-20.5-45.6-45.6-45.6h-19.7v-9.3c0-10-8.2-18.2-18.2-18.2h-13.9c-10,0-18.2,8.2-18.2,18.2v9.3h-49.7v-9.3
	c0-10-8.2-18.2-18.2-18.2h-13.9c-10,0-18.2,8.2-18.2,18.2v9.3h-49.7v-9.3c0-10-8.2-18.2-18.2-18.2h-13.9c-10,0-18.2,8.2-18.2,18.2
	v9.3h-49.7v-9.3c0-10-8.2-18.2-18.2-18.2H75.4c-10,0-18.2,8.2-18.2,18.2v9.3H45.6C20.5,27.5,0,48,0,73.1v284.2
	C0,361.5,3.4,364.8,7.5,364.8z M372.5,18.2c0-1.8,1.4-3.2,3.2-3.2h13.9c1.8,0,3.2,1.4,3.2,3.2v36.4c0,1.8-1.4,3.2-3.2,3.2h-13.9
	c-1.8,0-3.2-1.4-3.2-3.2V18.2z M272.4,18.2c0-1.8,1.4-3.2,3.2-3.2h13.9c1.8,0,3.2,1.4,3.2,3.2v36.4c0,1.8-1.4,3.2-3.2,3.2h-13.9
	c-1.8,0-3.2-1.4-3.2-3.2V18.2z M172.3,18.2c0-1.8,1.4-3.2,3.2-3.2h13.9c1.8,0,3.2,1.4,3.2,3.2v36.4c0,1.8-1.4,3.2-3.2,3.2h-13.9
	c-1.8,0-3.2-1.4-3.2-3.2V18.2z M72.2,18.2c0-1.8,1.4-3.2,3.2-3.2h13.9c1.8,0,3.2,1.4,3.2,3.2v36.4c0,1.8-1.4,3.2-3.2,3.2H75.4
	c-1.8,0-3.2-1.4-3.2-3.2V18.2z M45.6,42.5h11.6v12.1c0,10,8.2,18.2,18.2,18.2h13.9c10,0,18.2-8.2,18.2-18.2V42.5h49.7v12.1
	c0,10,8.2,18.2,18.2,18.2h13.9c10,0,18.2-8.2,18.2-18.2V42.5h49.7v12.1c0,10,8.2,18.2,18.2,18.2h13.9c10,0,18.2-8.2,18.2-18.2V42.5
	h49.7v12.1c0,10,8.2,18.2,18.2,18.2h13.9c10,0,18.2-8.2,18.2-18.2V42.5h19.7c16.9,0,30.6,13.7,30.6,30.6v50.8H15V73.1
	C15,56.2,28.7,42.5,45.6,42.5z"/>
<path fill="#FC0254" d="M84.9,434.6H19.5c-2.5,0-4.5-2-4.5-4.5v-38.6c0-4.1-3.4-7.5-7.5-7.5S0,387.4,0,391.5v38.6
	c0,10.8,8.8,19.5,19.5,19.5h65.4c4.1,0,7.5-3.4,7.5-7.5C92.4,437.9,89.1,434.6,84.9,434.6z"/>
<path fill="#FC0254" d="M84.7,160.8H58.6c-4.1,0-7.5,3.4-7.5,7.5c0,4.1,3.4,7.5,7.5,7.5h26.1c4.1,0,7.5-3.4,7.5-7.5
	C92.2,164.1,88.8,160.8,84.7,160.8z"/>
<path fill="#FC0254" d="M138.7,175.8h26.1c4.1,0,7.5-3.4,7.5-7.5c0-4.1-3.4-7.5-7.5-7.5h-26.1c-4.1,0-7.5,3.4-7.5,7.5
	C131.2,172.4,134.6,175.8,138.7,175.8z"/>
<path fill="#FC0254" d="M218.8,175.8h26.1c4.1,0,7.5-3.4,7.5-7.5c0-4.1-3.4-7.5-7.5-7.5h-26.1c-4.1,0-7.5,3.4-7.5,7.5
	C211.3,172.4,214.7,175.8,218.8,175.8z"/>
<path fill="#FC0254" d="M298.9,175.8H325c4.1,0,7.5-3.4,7.5-7.5c0-4.1-3.4-7.5-7.5-7.5h-26.1c-4.1,0-7.5,3.4-7.5,7.5
	C291.4,172.4,294.8,175.8,298.9,175.8z"/>
<path fill="#FC0254" d="M405.1,160.8h-26.1c-4.1,0-7.5,3.4-7.5,7.5c0,4.1,3.4,7.5,7.5,7.5h26.1c4.1,0,7.5-3.4,7.5-7.5
	C412.6,164.1,409.3,160.8,405.1,160.8z"/>
<path fill="#FC0254" d="M84.7,198.5H58.6c-4.1,0-7.5,3.4-7.5,7.5s3.4,7.5,7.5,7.5h26.1c4.1,0,7.5-3.4,7.5-7.5S88.8,198.5,84.7,198.5
	z"/>
<path fill="#FC0254" d="M138.7,213.5h26.1c4.1,0,7.5-3.4,7.5-7.5s-3.4-7.5-7.5-7.5h-26.1c-4.1,0-7.5,3.4-7.5,7.5
	S134.6,213.5,138.7,213.5z"/>
<path fill="#FC0254" d="M218.8,213.5h26.1c4.1,0,7.5-3.4,7.5-7.5s-3.4-7.5-7.5-7.5h-26.1c-4.1,0-7.5,3.4-7.5,7.5
	S214.7,213.5,218.8,213.5z"/>
<path fill="#FC0254" d="M298.9,213.5H325c4.1,0,7.5-3.4,7.5-7.5s-3.4-7.5-7.5-7.5h-26.1c-4.1,0-7.5,3.4-7.5,7.5
	S294.8,213.5,298.9,213.5z"/>
<path fill="#FC0254" d="M405.1,198.5h-26.1c-4.1,0-7.5,3.4-7.5,7.5s3.4,7.5,7.5,7.5h26.1c4.1,0,7.5-3.4,7.5-7.5
	S409.3,198.5,405.1,198.5z"/>
<path fill="#FC0254" d="M138.9,360.7l38.6,38.6c5.6,5.6,13,8.6,20.9,8.6s15.3-3.1,20.9-8.6l105.6-105.6c11.5-11.5,11.5-30.3,0-41.8
	s-30.3-11.5-41.8,0l-84.7,84.7l-17.7-17.7c-11.5-11.5-30.3-11.5-41.8,0C127.4,330.5,127.4,349.2,138.9,360.7z M149.5,329.6
	c2.8-2.8,6.6-4.3,10.3-4.3s7.4,1.4,10.3,4.3l23,23c2.9,2.9,7.7,2.9,10.6,0l90-90c5.7-5.7,14.9-5.7,20.6,0c5.7,5.7,5.7,14.9,0,20.6
	L208.6,388.7c-2.7,2.7-6.4,4.3-10.3,4.3s-7.5-1.5-10.3-4.3l-38.6-38.6C143.8,344.4,143.8,335.2,149.5,329.6z"/>
<path fill="#FC0254" d="M473.1,315.4v-59.8c0-4.1-3.4-7.5-7.5-7.5c-4.1,0-7.5,3.4-7.5,7.5v50.3c-13.7-7.1-29.2-11.1-45.6-11.1
	c-54.9,0-99.5,44.6-99.5,99.5c0,14.4,3.1,28,8.6,40.4H119.1c-4.1,0-7.5,3.4-7.5,7.5c0,4.1,3.4,7.5,7.5,7.5h210.8
	c17.9,26.6,48.2,44.1,82.6,44.1c54.9,0,99.5-44.6,99.5-99.5C512,362.1,496.8,333.6,473.1,315.4z M412.5,478.7
	c-46.6,0-84.5-37.9-84.5-84.5s37.9-84.5,84.5-84.5s84.5,37.9,84.5,84.5S459.1,478.7,412.5,478.7z"/>
<path fill="#FC0254" d="M412.5,320.5c-40.6,0-73.7,33.1-73.7,73.7c0,40.6,33,73.7,73.7,73.7s73.7-33,73.7-73.7
	C486.2,353.6,453.1,320.5,412.5,320.5z M419.2,452.5c0.5-1,0.8-2.1,0.8-3.3V440c0-4.1-3.4-7.5-7.5-7.5s-7.5,3.4-7.5,7.5v9.1
	c0,1.2,0.3,2.3,0.8,3.3c-27-3.1-48.5-24.6-51.6-51.6c1,0.5,2.1,0.8,3.3,0.8h9.1c4.1,0,7.5-3.4,7.5-7.5s-3.4-7.5-7.5-7.5h-9.1
	c-1.2,0-2.3,0.3-3.3,0.8c3.1-27,24.6-48.5,51.6-51.6c-0.5,1-0.8,2.1-0.8,3.3v9.1c0,4.1,3.4,7.5,7.5,7.5s7.5-3.4,7.5-7.5v-9.1
	c0-1.2-0.3-2.3-0.8-3.3c27,3.1,48.5,24.6,51.6,51.6c-1-0.5-2.1-0.8-3.3-0.8h-9.1c-4.1,0-7.5,3.4-7.5,7.5s3.4,7.5,7.5,7.5h9.1
	c1.2,0,2.3-0.3,3.3-0.8C467.7,427.9,446.2,449.4,419.2,452.5z"/>
<path fill="#FC0254" d="M429,386.7h-9V379c0-4.1-3.4-7.5-7.5-7.5c-4.1,0-7.5,3.4-7.5,7.5v15.2c0,4.1,3.4,7.5,7.5,7.5H429
	c4.1,0,7.5-3.4,7.5-7.5S433.2,386.7,429,386.7z"/>
</svg>
