<?xml version="1.0" encoding="utf-8"?>
<!-- Generator: Adobe Illustrator 18.0.0, SVG Export Plug-In . SVG Version: 6.00 Build 0)  -->
<!DOCTYPE svg PUBLIC "-//W3C//DTD SVG 1.1//EN" "http://www.w3.org/Graphics/SVG/1.1/DTD/svg11.dtd">
<svg version="1.1" id="Layer_1" xmlns="http://www.w3.org/2000/svg" xmlns:xlink="http://www.w3.org/1999/xlink" x="0px" y="0px"
	 viewBox="0 0 480 480" enable-background="new 0 0 480 480" xml:space="preserve">
<path fill="#FC0254" d="M232,0H39.5C17.7,0,0,17.7,0,39.5v401C0,462.3,17.7,480,39.5,480H232c21.8,0,39.5-17.7,39.5-39.5v-401
	C271.5,17.7,253.8,0,232,0z M39.5,16H232c13,0,23.5,10.5,23.5,23.5V48H16v-8.5C16,26.5,26.5,16,39.5,16z M255.5,64v336H16V64H255.5z
	 M232,464H39.5c-13,0-23.5-10.5-23.5-23.5V416h239.5v24.5C255.5,453.5,245,464,232,464z"/>
<path fill="#FC0254" d="M127.5,432h16v16h-16V432z"/>
<path fill="#FC0254" d="M135.5,288c39.7,0,72-32.3,72-72v-64c0-39.8-32.2-72-72-72s-72,32.2-72,72v64C63.6,255.7,95.8,288,135.5,288
	z M95.5,112.9V128h16v-26.5c5.1-2.4,10.5-4,16-4.8V128h16V96.6c5.5,0.8,10.9,2.4,16,4.8V128h16v-15.1c8.3,8.5,13.7,19.4,15.4,31.1
	h-47.4v16h48v16h-48v16h48v16h-48v16h47.4c-1.7,11.7-7.1,22.6-15.4,31.1V240h-16v26.5c-5.1,2.4-10.5,4-16,4.8V240h-16v31.4
	c-5.5-0.8-10.9-2.4-16-4.8V240h-16v15.1c-8.3-8.5-13.7-19.4-15.4-31.1h47.4v-16h-48v-16h48v-16h-48v-16h48v-16H80.2
	C81.8,132.3,87.2,121.4,95.5,112.9z"/>
<path fill="#FC0254" d="M127.5,319.6V368h-48v16h112v-16h-48v-48.4c54.1-4.2,95.9-49.3,96-103.6v-40h-16v40c0,48.6-39.4,88-88,88
	s-88-39.4-88-88v-40h-16v40C31.6,270.3,73.4,315.4,127.5,319.6z"/>
<path fill="#FC0254" d="M440,0h-24c-4.4,0-8,3.6-8,8v64c0,4.4,3.6,8,8,8h16v56c0,4.4,3.6,8,8,8h8v104h-72c-13.3,0-24-10.7-24-24v-80
	h8c4.4,0,8-3.6,8-8V80h16c4.4,0,8-3.6,8-8V8c0-4.4-3.6-8-8-8h-24c-22.1,0-40,17.9-40,40v96c0,4.4,3.6,8,8,8h8v80
	c0,22.1,17.9,40,40,40h72v24h-8c-4.4,0-8,3.6-8,8v96c0,4.4,3.6,8,8,8h8v40c0,13.3-10.7,24-24,24h-96c-8.8,0-16-7.2-16-16
	s7.2-16,16-16h48c17.7,0,32-14.3,32-32s-14.3-32-32-32h-80v16h80c8.8,0,16,7.2,16,16s-7.2,16-16,16h-48c-17.7,0-32,14.3-32,32
	s14.3,32,32,32h96c22.1,0,40-17.9,40-40v-40h8c4.4,0,8-3.6,8-8v-96c0-4.4-3.6-8-8-8h-8V144h8c4.4,0,8-3.6,8-8V40
	C480,17.9,462.1,0,440,0z M336,40c0-13.3,10.7-24,24-24h16v48h-16c-4.4,0-8,3.6-8,8v56h-16V40z M464,384h-16v-80h16V384z M464,128
	h-16V72c0-4.4-3.6-8-8-8h-16V16h16c13.3,0,24,10.7,24,24V128z"/>
</svg>
