<?xml version="1.0" encoding="utf-8"?>
<!-- Generator: Adobe Illustrator 18.0.0, SVG Export Plug-In . SVG Version: 6.00 Build 0)  -->
<!DOCTYPE svg PUBLIC "-//W3C//DTD SVG 1.1//EN" "http://www.w3.org/Graphics/SVG/1.1/DTD/svg11.dtd">
<svg version="1.1" id="Capa_1" xmlns="http://www.w3.org/2000/svg" xmlns:xlink="http://www.w3.org/1999/xlink" x="0px" y="0px"
	 viewBox="0 0 512 512" enable-background="new 0 0 512 512" xml:space="preserve">
<g>
	<path fill="#FC0254" d="M456.8,390.6c30.4,0,55.2-24.7,55.2-55.1V63c0-30.4-24.7-55.2-55.2-55.2H55.2C24.7,7.9,0,32.6,0,63v131.6
		c0,4.1,3.4,7.5,7.5,7.5c4.1,0,7.5-3.4,7.5-7.5V63c0-22.1,18-40.2,40.2-40.2h401.7c22.1,0,40.2,18,40.2,40.2v216.9h-40V151.6
		c0-4.1-3.4-7.5-7.5-7.5s-7.5,3.4-7.5,7.5v128.3H70v-202h372v43.7c0,4.1,3.4,7.5,7.5,7.5s7.5-3.4,7.5-7.5V70.4
		c0-4.1-3.4-7.5-7.5-7.5h-387c-4.1,0-7.5,3.4-7.5,7.5v209.5H15v-55.3c0-4.1-3.4-7.5-7.5-7.5c-4.1,0-7.5,3.4-7.5,7.5v110.8
		c0,30.4,24.7,55.1,55.2,55.1h131.7v36.7h-1.6c-21.2,0-38.4,17.2-38.4,38.4s17.2,38.4,38.4,38.4h141.6c21.2,0,38.4-17.2,38.4-38.4
		s-17.2-38.4-38.4-38.4h-1.6v-36.7L456.8,390.6z M15,335.4v-40.5h482v40.5c0,22.1-18,40.1-40.2,40.1H55.2
		C33,375.6,15,357.6,15,335.4z M350.2,465.7c0,12.9-10.5,23.4-23.4,23.4H185.2c-12.9,0-23.4-10.5-23.4-23.4s10.5-23.4,23.4-23.4
		h141.6C339.7,442.3,350.2,452.8,350.2,465.7L350.2,465.7z M310.2,427.3H201.8v-36.7h108.3V427.3z"/>
	<path fill="#FC0254" d="M264.3,42.9c0-4.6-3.7-8.3-8.3-8.3s-8.3,3.7-8.3,8.3s3.7,8.3,8.3,8.3S264.3,47.5,264.3,42.9z"/>
	<path fill="#FC0254" d="M164.3,313.7c-4.1,0-7.5,3.4-7.5,7.5v17.6c0,4.1,3.4,7.5,7.5,7.5s7.5-3.4,7.5-7.5v-17.6
		C171.8,317,168.4,313.7,164.3,313.7z"/>
	<path fill="#FC0254" d="M347.7,346.3c4.1,0,7.5-3.4,7.5-7.5v-17.6c0-4.1-3.4-7.5-7.5-7.5s-7.5,3.4-7.5,7.5v17.6
		C340.2,342.9,343.6,346.3,347.7,346.3z"/>
	<path fill="#FC0254" d="M256,356.8c11.4,0,22.3-5,29.8-13.6c2.7-3.1,2.4-7.9-0.7-10.6c-3.1-2.7-7.9-2.4-10.6,0.7
		c-4.7,5.4-11.4,8.4-18.5,8.4s-13.9-3.1-18.5-8.4c-2.7-3.1-7.5-3.4-10.6-0.7c-3.1,2.7-3.4,7.5-0.7,10.6
		C233.7,351.8,244.6,356.8,256,356.8z"/>
	<path fill="#FC0254" d="M264.6,106.5h-17.2c-10.1,0-18.9,6.9-21.2,16.7c-2.6,10.8-8.5,31.7-19.1,50.3c-7,12.3-5.3,27.9,4.2,38.8
		c7.3,8.4,11.9,19.9,13.2,32.4c0.8,8.3,7.8,14.6,16.1,14.6h30.9c8.4,0,15.3-6.3,16.1-14.6c1.2-12.5,5.9-24.1,13.2-32.4
		c9.5-11,11.2-26.6,4.2-38.8c-10.6-18.6-16.5-39.5-19.1-50.3C283.5,113.4,274.8,106.5,264.6,106.5L264.6,106.5z M289.4,202.6
		c-9.3,10.7-15.2,25.2-16.8,40.8c-0.1,0.6-0.6,1.1-1.2,1.1h-30.9c-0.6,0-1.1-0.5-1.2-1.1c-1.6-15.6-7.5-30.1-16.8-40.8
		c-5.3-6.2-6.3-14.8-2.5-21.6c10.9-19.2,17.3-40.1,20.7-54.2c0.7-3.1,3.5-5.2,6.6-5.2h1.1v43.7c-4.1,2.5-6.8,7-6.8,12.1
		c0,7.9,6.4,14.3,14.3,14.3s14.3-6.4,14.3-14.3c0-5.1-2.7-9.6-6.8-12.1v-43.7h1.1c3.2,0,5.9,2.1,6.6,5.2c3.4,14.1,9.7,35,20.7,54.2
		C295.8,187.7,294.8,196.4,289.4,202.6L289.4,202.6z"/>
</g>
</svg>
